<svg xmlns="http://www.w3.org/2000/svg" xmlns:xlink="http://www.w3.org/1999/xlink" width="500" zoomAndPan="magnify" viewBox="0 0 375 374.999991" height="500" preserveAspectRatio="xMidYMid meet" version="1.0"><defs><g/><clipPath id="eecc79a20a"><path d="M 43.179688 143 L 134.679688 143 L 134.679688 232.179688 L 43.179688 232.179688 Z M 43.179688 143 " clip-rule="nonzero"/></clipPath></defs><g clip-path="url(#eecc79a20a)"><path fill="#ffffff" d="M 78.816406 232.003906 C 79.882812 232 80.898438 231.515625 81.570312 230.683594 L 102.515625 204.867188 C 103.382812 203.789062 104.664062 203.136719 106.039062 203.042969 C 111.273438 202.699219 113.386719 209.65625 108.84375 212.28125 L 108.617188 212.414062 C 103.71875 215.195312 98.820312 217.980469 93.925781 220.761719 C 93.535156 220.980469 93.191406 221.277344 92.910156 221.625 L 89.328125 226.066406 C 87.441406 228.40625 89.109375 231.886719 92.113281 231.878906 C 97.292969 231.867188 102.472656 231.859375 107.652344 231.84375 C 108.742188 231.84375 109.769531 231.34375 110.449219 230.484375 L 115.699219 223.835938 C 116.359375 222.996094 116.613281 221.902344 116.382812 220.855469 L 109.257812 188.386719 C 108.957031 187.035156 109.25 185.628906 110.027344 184.492188 C 113.023438 180.1875 119.78125 182.871094 119 188.0625 L 118.960938 188.324219 C 118.082031 193.886719 117.203125 199.449219 116.324219 205.011719 C 116.257812 205.457031 116.269531 205.910156 116.367188 206.34375 L 117.605469 211.914062 C 118.257812 214.847656 122.023438 215.714844 123.890625 213.363281 C 126.878906 209.597656 130.71875 204.761719 133.554688 201.195312 C 134.234375 200.339844 134.484375 199.222656 134.234375 198.160156 L 132.308594 189.910156 C 132.0625 188.867188 131.363281 187.988281 130.40625 187.519531 L 100.574219 172.84375 C 99.332031 172.238281 98.410156 171.132812 98.011719 169.816406 C 96.511719 164.789062 102.824219 161.179688 106.394531 165.027344 L 106.578125 165.222656 C 110.378906 169.375 114.179688 173.53125 117.980469 177.6875 C 118.285156 178.015625 118.648438 178.285156 119.050781 178.484375 L 124.175781 180.988281 C 126.878906 182.308594 129.898438 179.902344 129.226562 176.976562 C 128.0625 171.929688 126.898438 166.882812 125.738281 161.835938 C 125.492188 160.773438 124.773438 159.882812 123.789062 159.414062 L 116.136719 155.777344 C 115.171875 155.316406 114.050781 155.3125 113.082031 155.769531 L 83.011719 169.941406 C 81.757812 170.535156 80.320312 170.566406 79.042969 170.058594 C 74.179688 168.097656 75.292969 160.910156 80.523438 160.519531 L 80.789062 160.5 C 86.40625 160.117188 92.027344 159.734375 97.644531 159.351562 C 98.089844 159.324219 98.53125 159.207031 98.933594 159.015625 L 104.089844 156.570312 C 106.804688 155.28125 106.8125 151.421875 104.097656 150.121094 C 99.425781 147.882812 94.757812 145.648438 90.089844 143.410156 C 89.105469 142.941406 87.957031 142.945312 86.980469 143.421875 L 79.363281 147.136719 C 78.402344 147.601562 77.699219 148.480469 77.457031 149.523438 L 69.785156 181.867188 C 69.472656 183.214844 68.597656 184.359375 67.402344 185.042969 C 62.835938 187.621094 57.914062 182.269531 60.867188 177.933594 L 61.011719 177.714844 C 64.21875 173.082031 67.425781 168.453125 70.628906 163.824219 C 70.882812 163.453125 71.066406 163.039062 71.167969 162.601562 L 72.46875 157.046875 C 73.152344 154.121094 70.140625 151.707031 67.433594 153.019531 C 63.105469 155.113281 57.550781 157.804688 53.449219 159.789062 C 52.46875 160.265625 51.757812 161.164062 51.523438 162.226562 L 49.679688 170.496094 C 49.445312 171.542969 49.695312 172.636719 50.355469 173.480469 L 70.859375 199.640625 C 71.71875 200.726562 72.066406 202.125 71.855469 203.484375 C 71.027344 208.660156 63.769531 209.175781 62.222656 204.160156 L 62.144531 203.90625 C 60.523438 198.515625 58.898438 193.121094 57.277344 187.726562 C 57.148438 187.296875 56.9375 186.898438 56.660156 186.546875 L 53.128906 182.0625 C 51.265625 179.703125 47.5 180.554688 46.839844 183.488281 C 45.699219 188.539062 44.558594 193.589844 43.414062 198.640625 C 43.171875 199.707031 43.429688 200.820312 44.113281 201.671875 L 49.429688 208.269531 C 50.105469 209.101562 51.113281 209.589844 52.183594 209.597656 L 85.425781 209.875 C 86.808594 209.882812 88.121094 210.480469 89.050781 211.496094 C 92.582031 215.375 88.457031 221.363281 83.574219 219.449219 L 83.328125 219.351562 C 78.101562 217.261719 72.871094 215.164062 67.644531 213.070312 C 67.226562 212.902344 66.785156 212.816406 66.335938 212.816406 L 60.632812 212.78125 C 57.625 212.765625 55.941406 216.242188 57.820312 218.585938 C 61.058594 222.628906 64.296875 226.671875 67.535156 230.714844 C 68.214844 231.566406 69.25 232.058594 70.339844 232.054688 L 78.816406 232.011719 Z M 69.296875 192.867188 L 72.214844 178.878906 C 72.4375 177.816406 73.132812 176.910156 74.101562 176.421875 L 86.855469 169.976562 C 87.828125 169.488281 88.96875 169.464844 89.957031 169.917969 L 102.941406 175.871094 C 103.933594 176.328125 104.660156 177.207031 104.921875 178.261719 L 108.363281 192.125 C 108.625 193.179688 108.390625 194.296875 107.730469 195.160156 L 99.03125 206.496094 C 98.371094 207.363281 97.351562 207.875 96.265625 207.894531 L 81.980469 208.167969 C 80.894531 208.1875 79.855469 207.710938 79.160156 206.875 L 70.042969 195.871094 C 69.351562 195.035156 69.074219 193.925781 69.296875 192.863281 Z M 69.296875 192.867188 " fill-opacity="1" fill-rule="nonzero"/></g><g fill="#ffffff" fill-opacity="1"><g transform="translate(142.891313, 187.453099)"><g><path d="M 1.390625 -27.046875 L 11.3125 -27.046875 L 11.3125 0 L 5.609375 0 L 5.609375 -21.96875 L 1.390625 -21.96875 Z M 1.390625 -27.046875 "/></g></g></g><g fill="#ffffff" fill-opacity="1"><g transform="translate(155.496879, 187.453099)"><g><path d="M 12.890625 0.484375 C 10.640625 0.484375 8.691406 -0.0820312 7.046875 -1.21875 C 5.410156 -2.351562 4.144531 -3.972656 3.25 -6.078125 C 2.351562 -8.179688 1.90625 -10.671875 1.90625 -13.546875 C 1.90625 -16.421875 2.351562 -18.90625 3.25 -21 C 4.144531 -23.101562 5.410156 -24.722656 7.046875 -25.859375 C 8.691406 -27.003906 10.640625 -27.578125 12.890625 -27.578125 C 15.140625 -27.578125 17.082031 -27.003906 18.71875 -25.859375 C 20.363281 -24.722656 21.625 -23.101562 22.5 -21 C 23.382812 -18.90625 23.828125 -16.421875 23.828125 -13.546875 C 23.828125 -10.671875 23.382812 -8.179688 22.5 -6.078125 C 21.625 -3.972656 20.363281 -2.351562 18.71875 -1.21875 C 17.082031 -0.0820312 15.140625 0.484375 12.890625 0.484375 Z M 12.890625 -4.921875 C 14.546875 -4.921875 15.804688 -5.660156 16.671875 -7.140625 C 17.546875 -8.617188 17.984375 -10.738281 17.984375 -13.5 C 17.984375 -16.289062 17.539062 -18.429688 16.65625 -19.921875 C 15.769531 -21.421875 14.515625 -22.171875 12.890625 -22.171875 C 11.234375 -22.171875 9.960938 -21.429688 9.078125 -19.953125 C 8.203125 -18.472656 7.765625 -16.335938 7.765625 -13.546875 C 7.765625 -10.753906 8.203125 -8.617188 9.078125 -7.140625 C 9.960938 -5.660156 11.234375 -4.921875 12.890625 -4.921875 Z M 12.890625 -4.921875 "/></g></g></g><g fill="#ffffff" fill-opacity="1"><g transform="translate(179.244401, 187.453099)"><g><path d="M 12.890625 0.484375 C 10.640625 0.484375 8.691406 -0.0820312 7.046875 -1.21875 C 5.410156 -2.351562 4.144531 -3.972656 3.25 -6.078125 C 2.351562 -8.179688 1.90625 -10.671875 1.90625 -13.546875 C 1.90625 -16.421875 2.351562 -18.90625 3.25 -21 C 4.144531 -23.101562 5.410156 -24.722656 7.046875 -25.859375 C 8.691406 -27.003906 10.640625 -27.578125 12.890625 -27.578125 C 15.140625 -27.578125 17.082031 -27.003906 18.71875 -25.859375 C 20.363281 -24.722656 21.625 -23.101562 22.5 -21 C 23.382812 -18.90625 23.828125 -16.421875 23.828125 -13.546875 C 23.828125 -10.671875 23.382812 -8.179688 22.5 -6.078125 C 21.625 -3.972656 20.363281 -2.351562 18.71875 -1.21875 C 17.082031 -0.0820312 15.140625 0.484375 12.890625 0.484375 Z M 12.890625 -4.921875 C 14.546875 -4.921875 15.804688 -5.660156 16.671875 -7.140625 C 17.546875 -8.617188 17.984375 -10.738281 17.984375 -13.5 C 17.984375 -16.289062 17.539062 -18.429688 16.65625 -19.921875 C 15.769531 -21.421875 14.515625 -22.171875 12.890625 -22.171875 C 11.234375 -22.171875 9.960938 -21.429688 9.078125 -19.953125 C 8.203125 -18.472656 7.765625 -16.335938 7.765625 -13.546875 C 7.765625 -10.753906 8.203125 -8.617188 9.078125 -7.140625 C 9.960938 -5.660156 11.234375 -4.921875 12.890625 -4.921875 Z M 12.890625 -4.921875 "/></g></g></g><g fill="#ffffff" fill-opacity="1"><g transform="translate(202.991925, 187.453099)"><g><path d="M 20.125 -28.46875 L 26.28125 -28.46875 L 26.28125 0 L 20.125 0 L 20.125 -11.75 L 9.4375 -11.75 L 9.4375 0 L 3.25 0 L 3.25 -28.46875 L 9.4375 -28.46875 L 9.4375 -17.484375 L 20.125 -17.484375 Z M 20.125 -28.46875 "/></g></g></g><g fill="#ffffff" fill-opacity="1"><g transform="translate(230.521201, 187.453099)"><g><path d="M 13.296875 0.609375 C 11.023438 0.609375 8.992188 0.101562 7.203125 -0.90625 C 5.410156 -1.925781 4 -3.3125 2.96875 -5.0625 C 1.9375 -6.8125 1.421875 -8.785156 1.421875 -10.984375 C 1.421875 -13.203125 1.9375 -15.1875 2.96875 -16.9375 C 4 -18.6875 5.410156 -20.0625 7.203125 -21.0625 C 8.992188 -22.070312 11.023438 -22.578125 13.296875 -22.578125 C 15.546875 -22.578125 17.566406 -22.070312 19.359375 -21.0625 C 21.148438 -20.0625 22.5625 -18.6875 23.59375 -16.9375 C 24.625 -15.1875 25.140625 -13.203125 25.140625 -10.984375 C 25.140625 -8.785156 24.625 -6.8125 23.59375 -5.0625 C 22.5625 -3.3125 21.148438 -1.925781 19.359375 -0.90625 C 17.566406 0.101562 15.546875 0.609375 13.296875 0.609375 Z M 13.296875 -4.96875 C 15.003906 -4.96875 16.398438 -5.519531 17.484375 -6.625 C 18.566406 -7.738281 19.109375 -9.191406 19.109375 -10.984375 C 19.109375 -12.773438 18.566406 -14.222656 17.484375 -15.328125 C 16.398438 -16.441406 15.003906 -17 13.296875 -17 C 11.566406 -17 10.15625 -16.441406 9.0625 -15.328125 C 7.976562 -14.222656 7.4375 -12.773438 7.4375 -10.984375 C 7.4375 -9.191406 7.976562 -7.738281 9.0625 -6.625 C 10.15625 -5.519531 11.566406 -4.96875 13.296875 -4.96875 Z M 13.296875 -4.96875 "/></g></g></g><g fill="#ffffff" fill-opacity="1"><g transform="translate(255.041345, 187.453099)"><g><path d="M 12.890625 0.609375 C 10.828125 0.609375 9.015625 0.195312 7.453125 -0.625 C 5.898438 -1.457031 4.695312 -2.609375 3.84375 -4.078125 C 2.988281 -5.554688 2.5625 -7.285156 2.5625 -9.265625 L 2.5625 -21.96875 L 8.5 -21.96875 L 8.5 -9.96875 C 8.5 -8.394531 8.882812 -7.164062 9.65625 -6.28125 C 10.425781 -5.40625 11.503906 -4.96875 12.890625 -4.96875 C 14.273438 -4.96875 15.347656 -5.410156 16.109375 -6.296875 C 16.867188 -7.191406 17.25 -8.414062 17.25 -9.96875 L 17.25 -21.96875 L 23.1875 -21.96875 L 23.1875 -9.265625 C 23.1875 -7.285156 22.757812 -5.554688 21.90625 -4.078125 C 21.050781 -2.609375 19.847656 -1.457031 18.296875 -0.625 C 16.753906 0.195312 14.953125 0.609375 12.890625 0.609375 Z M 12.890625 0.609375 "/></g></g></g><g fill="#ffffff" fill-opacity="1"><g transform="translate(278.748203, 187.453099)"><g><path d="M 14.078125 -22.078125 L 16.03125 -22.078125 L 16.03125 -16.46875 L 13.46875 -16.46875 C 11.78125 -16.46875 10.578125 -16.070312 9.859375 -15.28125 C 9.140625 -14.5 8.78125 -13.210938 8.78125 -11.421875 L 8.78125 0 L 2.84375 0 L 2.84375 -21.96875 L 6.671875 -21.96875 L 7.734375 -19.28125 C 9.222656 -21.144531 11.335938 -22.078125 14.078125 -22.078125 Z M 14.078125 -22.078125 "/></g></g></g><g fill="#ffffff" fill-opacity="1"><g transform="translate(293.264975, 187.453099)"><g><path d="M 22.171875 0 L 20.171875 -5.40625 L 8.828125 -5.40625 L 6.875 0 L 0.359375 0 L 11.515625 -28.46875 L 17.328125 -28.46875 L 28.84375 0 Z M 14.484375 -20.953125 L 10.78125 -10.78125 L 18.21875 -10.78125 Z M 14.484375 -20.953125 "/></g></g></g><g fill="#ffffff" fill-opacity="1"><g transform="translate(320.428281, 187.453099)"><g><path d="M 3.25 0 L 3.25 -28.46875 L 9.4375 -28.46875 L 9.4375 0 Z M 3.25 0 "/></g></g></g><g fill="#ffffff" fill-opacity="1"><g transform="translate(142.891313, 219.042101)"><g><path d="M 4.1875 0.125 C 3.125 0.125 2.296875 -0.164062 1.703125 -0.75 C 1.109375 -1.34375 0.8125 -2.179688 0.8125 -3.265625 L 0.8125 -7.4375 L 2.546875 -7.4375 L 2.546875 -3.34375 C 2.546875 -2.007812 3.097656 -1.34375 4.203125 -1.34375 C 4.734375 -1.34375 5.140625 -1.503906 5.421875 -1.828125 C 5.710938 -2.148438 5.859375 -2.65625 5.859375 -3.34375 L 5.859375 -7.4375 L 7.546875 -7.4375 L 7.546875 -3.265625 C 7.546875 -2.179688 7.25 -1.34375 6.65625 -0.75 C 6.070312 -0.164062 5.25 0.125 4.1875 0.125 Z M 4.1875 0.125 "/></g></g></g><g fill="#ffffff" fill-opacity="1"><g transform="translate(153.382115, 219.042101)"><g><path d="M 7.703125 -7.4375 L 7.703125 0 L 6.296875 0 L 2.578125 -4.515625 L 2.578125 0 L 0.875 0 L 0.875 -7.4375 L 2.3125 -7.4375 L 6 -2.921875 L 6 -7.4375 Z M 7.703125 -7.4375 "/></g></g></g><g fill="#ffffff" fill-opacity="1"><g transform="translate(164.085263, 219.042101)"><g><path d="M 0.875 -7.4375 L 2.609375 -7.4375 L 2.609375 -1.40625 L 6.328125 -1.40625 L 6.328125 0 L 0.875 0 Z M 0.875 -7.4375 "/></g></g></g><g fill="#ffffff" fill-opacity="1"><g transform="translate(172.622489, 219.042101)"><g><path d="M 4.484375 0.125 C 3.710938 0.125 3.015625 -0.0390625 2.390625 -0.375 C 1.773438 -0.707031 1.289062 -1.164062 0.9375 -1.75 C 0.59375 -2.332031 0.421875 -2.988281 0.421875 -3.71875 C 0.421875 -4.445312 0.59375 -5.101562 0.9375 -5.6875 C 1.289062 -6.269531 1.773438 -6.726562 2.390625 -7.0625 C 3.015625 -7.394531 3.710938 -7.5625 4.484375 -7.5625 C 5.253906 -7.5625 5.945312 -7.394531 6.5625 -7.0625 C 7.175781 -6.726562 7.660156 -6.269531 8.015625 -5.6875 C 8.367188 -5.101562 8.546875 -4.445312 8.546875 -3.71875 C 8.546875 -2.988281 8.367188 -2.332031 8.015625 -1.75 C 7.660156 -1.164062 7.175781 -0.707031 6.5625 -0.375 C 5.945312 -0.0390625 5.253906 0.125 4.484375 0.125 Z M 4.484375 -1.34375 C 4.921875 -1.34375 5.316406 -1.441406 5.671875 -1.640625 C 6.023438 -1.835938 6.300781 -2.117188 6.5 -2.484375 C 6.707031 -2.847656 6.8125 -3.257812 6.8125 -3.71875 C 6.8125 -4.175781 6.707031 -4.585938 6.5 -4.953125 C 6.300781 -5.316406 6.023438 -5.597656 5.671875 -5.796875 C 5.316406 -5.992188 4.921875 -6.09375 4.484375 -6.09375 C 4.046875 -6.09375 3.648438 -5.992188 3.296875 -5.796875 C 2.941406 -5.597656 2.660156 -5.316406 2.453125 -4.953125 C 2.253906 -4.585938 2.15625 -4.175781 2.15625 -3.71875 C 2.15625 -3.257812 2.253906 -2.847656 2.453125 -2.484375 C 2.660156 -2.117188 2.941406 -1.835938 3.296875 -1.640625 C 3.648438 -1.441406 4.046875 -1.34375 4.484375 -1.34375 Z M 4.484375 -1.34375 "/></g></g></g><g fill="#ffffff" fill-opacity="1"><g transform="translate(183.707859, 219.042101)"><g><path d="M 4.4375 0.125 C 3.675781 0.125 2.988281 -0.0351562 2.375 -0.359375 C 1.769531 -0.691406 1.289062 -1.148438 0.9375 -1.734375 C 0.59375 -2.316406 0.421875 -2.976562 0.421875 -3.71875 C 0.421875 -4.457031 0.59375 -5.117188 0.9375 -5.703125 C 1.289062 -6.285156 1.769531 -6.738281 2.375 -7.0625 C 2.988281 -7.394531 3.679688 -7.5625 4.453125 -7.5625 C 5.097656 -7.5625 5.679688 -7.445312 6.203125 -7.21875 C 6.722656 -7 7.160156 -6.675781 7.515625 -6.25 L 6.40625 -5.234375 C 5.90625 -5.804688 5.28125 -6.09375 4.53125 -6.09375 C 4.070312 -6.09375 3.660156 -5.992188 3.296875 -5.796875 C 2.941406 -5.597656 2.660156 -5.316406 2.453125 -4.953125 C 2.253906 -4.585938 2.15625 -4.175781 2.15625 -3.71875 C 2.15625 -3.257812 2.253906 -2.847656 2.453125 -2.484375 C 2.660156 -2.117188 2.941406 -1.835938 3.296875 -1.640625 C 3.660156 -1.441406 4.070312 -1.34375 4.53125 -1.34375 C 5.28125 -1.34375 5.90625 -1.632812 6.40625 -2.21875 L 7.515625 -1.203125 C 7.160156 -0.765625 6.71875 -0.429688 6.1875 -0.203125 C 5.664062 0.015625 5.082031 0.125 4.4375 0.125 Z M 4.4375 0.125 "/></g></g></g><g fill="#ffffff" fill-opacity="1"><g transform="translate(193.614717, 219.042101)"><g><path d="M 3.59375 -2.921875 L 2.59375 -1.875 L 2.59375 0 L 0.875 0 L 0.875 -7.4375 L 2.59375 -7.4375 L 2.59375 -3.96875 L 5.890625 -7.4375 L 7.796875 -7.4375 L 4.71875 -4.125 L 7.984375 0 L 5.96875 0 Z M 3.59375 -2.921875 "/></g></g></g><g fill="#ffffff" fill-opacity="1"><g transform="translate(203.595893, 219.042101)"><g><path d="M 0.875 -7.4375 L 2.609375 -7.4375 L 2.609375 0 L 0.875 0 Z M 0.875 -7.4375 "/></g></g></g><g fill="#ffffff" fill-opacity="1"><g transform="translate(209.202759, 219.042101)"><g><path d="M 7.703125 -7.4375 L 7.703125 0 L 6.296875 0 L 2.578125 -4.515625 L 2.578125 0 L 0.875 0 L 0.875 -7.4375 L 2.3125 -7.4375 L 6 -2.921875 L 6 -7.4375 Z M 7.703125 -7.4375 "/></g></g></g><g fill="#ffffff" fill-opacity="1"><g transform="translate(219.905908, 219.042101)"><g><path d="M 5.90625 -3.828125 L 7.484375 -3.828125 L 7.484375 -0.8125 C 7.078125 -0.507812 6.609375 -0.273438 6.078125 -0.109375 C 5.546875 0.046875 5.007812 0.125 4.46875 0.125 C 3.695312 0.125 3.003906 -0.0351562 2.390625 -0.359375 C 1.773438 -0.691406 1.289062 -1.148438 0.9375 -1.734375 C 0.59375 -2.316406 0.421875 -2.976562 0.421875 -3.71875 C 0.421875 -4.457031 0.59375 -5.117188 0.9375 -5.703125 C 1.289062 -6.285156 1.78125 -6.738281 2.40625 -7.0625 C 3.03125 -7.394531 3.726562 -7.5625 4.5 -7.5625 C 5.15625 -7.5625 5.75 -7.453125 6.28125 -7.234375 C 6.8125 -7.015625 7.257812 -6.695312 7.625 -6.28125 L 6.515625 -5.265625 C 5.984375 -5.816406 5.34375 -6.09375 4.59375 -6.09375 C 4.113281 -6.09375 3.6875 -5.992188 3.3125 -5.796875 C 2.945312 -5.597656 2.660156 -5.316406 2.453125 -4.953125 C 2.253906 -4.597656 2.15625 -4.1875 2.15625 -3.71875 C 2.15625 -3.257812 2.253906 -2.847656 2.453125 -2.484375 C 2.660156 -2.117188 2.945312 -1.835938 3.3125 -1.640625 C 3.6875 -1.441406 4.101562 -1.34375 4.5625 -1.34375 C 5.0625 -1.34375 5.507812 -1.445312 5.90625 -1.65625 Z M 5.90625 -3.828125 "/></g></g></g><g fill="#ffffff" fill-opacity="1"><g transform="translate(230.216216, 219.042101)"><g/></g></g><g fill="#ffffff" fill-opacity="1"><g transform="translate(235.345303, 219.042101)"><g><path d="M 4.09375 -7.4375 C 4.757812 -7.4375 5.332031 -7.328125 5.8125 -7.109375 C 6.300781 -6.890625 6.675781 -6.578125 6.9375 -6.171875 C 7.195312 -5.765625 7.328125 -5.285156 7.328125 -4.734375 C 7.328125 -4.191406 7.195312 -3.71875 6.9375 -3.3125 C 6.675781 -2.90625 6.300781 -2.59375 5.8125 -2.375 C 5.332031 -2.15625 4.757812 -2.046875 4.09375 -2.046875 L 2.609375 -2.046875 L 2.609375 0 L 0.875 0 L 0.875 -7.4375 Z M 4 -3.453125 C 4.519531 -3.453125 4.914062 -3.5625 5.1875 -3.78125 C 5.457031 -4.007812 5.59375 -4.328125 5.59375 -4.734375 C 5.59375 -5.148438 5.457031 -5.46875 5.1875 -5.6875 C 4.914062 -5.914062 4.519531 -6.03125 4 -6.03125 L 2.609375 -6.03125 L 2.609375 -3.453125 Z M 4 -3.453125 "/></g></g></g><g fill="#ffffff" fill-opacity="1"><g transform="translate(245.241541, 219.042101)"><g><path d="M 4.484375 0.125 C 3.710938 0.125 3.015625 -0.0390625 2.390625 -0.375 C 1.773438 -0.707031 1.289062 -1.164062 0.9375 -1.75 C 0.59375 -2.332031 0.421875 -2.988281 0.421875 -3.71875 C 0.421875 -4.445312 0.59375 -5.101562 0.9375 -5.6875 C 1.289062 -6.269531 1.773438 -6.726562 2.390625 -7.0625 C 3.015625 -7.394531 3.710938 -7.5625 4.484375 -7.5625 C 5.253906 -7.5625 5.945312 -7.394531 6.5625 -7.0625 C 7.175781 -6.726562 7.660156 -6.269531 8.015625 -5.6875 C 8.367188 -5.101562 8.546875 -4.445312 8.546875 -3.71875 C 8.546875 -2.988281 8.367188 -2.332031 8.015625 -1.75 C 7.660156 -1.164062 7.175781 -0.707031 6.5625 -0.375 C 5.945312 -0.0390625 5.253906 0.125 4.484375 0.125 Z M 4.484375 -1.34375 C 4.921875 -1.34375 5.316406 -1.441406 5.671875 -1.640625 C 6.023438 -1.835938 6.300781 -2.117188 6.5 -2.484375 C 6.707031 -2.847656 6.8125 -3.257812 6.8125 -3.71875 C 6.8125 -4.175781 6.707031 -4.585938 6.5 -4.953125 C 6.300781 -5.316406 6.023438 -5.597656 5.671875 -5.796875 C 5.316406 -5.992188 4.921875 -6.09375 4.484375 -6.09375 C 4.046875 -6.09375 3.648438 -5.992188 3.296875 -5.796875 C 2.941406 -5.597656 2.660156 -5.316406 2.453125 -4.953125 C 2.253906 -4.585938 2.15625 -4.175781 2.15625 -3.71875 C 2.15625 -3.257812 2.253906 -2.847656 2.453125 -2.484375 C 2.660156 -2.117188 2.941406 -1.835938 3.296875 -1.640625 C 3.648438 -1.441406 4.046875 -1.34375 4.484375 -1.34375 Z M 4.484375 -1.34375 "/></g></g></g><g fill="#ffffff" fill-opacity="1"><g transform="translate(256.326906, 219.042101)"><g><path d="M 12.125 -7.4375 L 9.6875 0 L 7.84375 0 L 6.203125 -5.03125 L 4.515625 0 L 2.671875 0 L 0.234375 -7.4375 L 2.015625 -7.4375 L 3.703125 -2.203125 L 5.453125 -7.4375 L 7.046875 -7.4375 L 8.75 -2.171875 L 10.46875 -7.4375 Z M 12.125 -7.4375 "/></g></g></g><g fill="#ffffff" fill-opacity="1"><g transform="translate(270.799172, 219.042101)"><g><path d="M 6.640625 -1.375 L 6.640625 0 L 0.875 0 L 0.875 -7.4375 L 6.5 -7.4375 L 6.5 -6.0625 L 2.59375 -6.0625 L 2.59375 -4.4375 L 6.046875 -4.4375 L 6.046875 -3.109375 L 2.59375 -3.109375 L 2.59375 -1.375 Z M 6.640625 -1.375 "/></g></g></g><g fill="#ffffff" fill-opacity="1"><g transform="translate(280.047748, 219.042101)"><g><path d="M 5.625 0 L 4.1875 -2.078125 L 2.609375 -2.078125 L 2.609375 0 L 0.875 0 L 0.875 -7.4375 L 4.09375 -7.4375 C 4.757812 -7.4375 5.332031 -7.328125 5.8125 -7.109375 C 6.300781 -6.890625 6.675781 -6.578125 6.9375 -6.171875 C 7.195312 -5.765625 7.328125 -5.285156 7.328125 -4.734375 C 7.328125 -4.179688 7.191406 -3.703125 6.921875 -3.296875 C 6.660156 -2.898438 6.285156 -2.597656 5.796875 -2.390625 L 7.46875 0 Z M 5.59375 -4.734375 C 5.59375 -5.148438 5.457031 -5.46875 5.1875 -5.6875 C 4.914062 -5.914062 4.519531 -6.03125 4 -6.03125 L 2.609375 -6.03125 L 2.609375 -3.4375 L 4 -3.4375 C 4.519531 -3.4375 4.914062 -3.550781 5.1875 -3.78125 C 5.457031 -4.007812 5.59375 -4.328125 5.59375 -4.734375 Z M 5.59375 -4.734375 "/></g></g></g><g fill="#ffffff" fill-opacity="1"><g transform="translate(289.975829, 219.042101)"><g/></g></g><g fill="#ffffff" fill-opacity="1"><g transform="translate(295.10491, 219.042101)"><g><path d="M 4.484375 0.125 C 3.710938 0.125 3.015625 -0.0390625 2.390625 -0.375 C 1.773438 -0.707031 1.289062 -1.164062 0.9375 -1.75 C 0.59375 -2.332031 0.421875 -2.988281 0.421875 -3.71875 C 0.421875 -4.445312 0.59375 -5.101562 0.9375 -5.6875 C 1.289062 -6.269531 1.773438 -6.726562 2.390625 -7.0625 C 3.015625 -7.394531 3.710938 -7.5625 4.484375 -7.5625 C 5.253906 -7.5625 5.945312 -7.394531 6.5625 -7.0625 C 7.175781 -6.726562 7.660156 -6.269531 8.015625 -5.6875 C 8.367188 -5.101562 8.546875 -4.445312 8.546875 -3.71875 C 8.546875 -2.988281 8.367188 -2.332031 8.015625 -1.75 C 7.660156 -1.164062 7.175781 -0.707031 6.5625 -0.375 C 5.945312 -0.0390625 5.253906 0.125 4.484375 0.125 Z M 4.484375 -1.34375 C 4.921875 -1.34375 5.316406 -1.441406 5.671875 -1.640625 C 6.023438 -1.835938 6.300781 -2.117188 6.5 -2.484375 C 6.707031 -2.847656 6.8125 -3.257812 6.8125 -3.71875 C 6.8125 -4.175781 6.707031 -4.585938 6.5 -4.953125 C 6.300781 -5.316406 6.023438 -5.597656 5.671875 -5.796875 C 5.316406 -5.992188 4.921875 -6.09375 4.484375 -6.09375 C 4.046875 -6.09375 3.648438 -5.992188 3.296875 -5.796875 C 2.941406 -5.597656 2.660156 -5.316406 2.453125 -4.953125 C 2.253906 -4.585938 2.15625 -4.175781 2.15625 -3.71875 C 2.15625 -3.257812 2.253906 -2.847656 2.453125 -2.484375 C 2.660156 -2.117188 2.941406 -1.835938 3.296875 -1.640625 C 3.648438 -1.441406 4.046875 -1.34375 4.484375 -1.34375 Z M 4.484375 -1.34375 "/></g></g></g><g fill="#ffffff" fill-opacity="1"><g transform="translate(306.190275, 219.042101)"><g><path d="M 2.609375 -6.0625 L 2.609375 -4.09375 L 6.046875 -4.09375 L 6.046875 -2.703125 L 2.609375 -2.703125 L 2.609375 0 L 0.875 0 L 0.875 -7.4375 L 6.5 -7.4375 L 6.5 -6.0625 Z M 2.609375 -6.0625 "/></g></g></g><g fill="#ffffff" fill-opacity="1"><g transform="translate(315.099099, 219.042101)"><g/></g></g><g fill="#ffffff" fill-opacity="1"><g transform="translate(320.228181, 219.042101)"><g><path d="M 5.78125 -1.59375 L 2.328125 -1.59375 L 1.671875 0 L -0.09375 0 L 3.21875 -7.4375 L 4.921875 -7.4375 L 8.25 0 L 6.4375 0 Z M 5.234375 -2.90625 L 4.0625 -5.75 L 2.875 -2.90625 Z M 5.234375 -2.90625 "/></g></g></g><g fill="#ffffff" fill-opacity="1"><g transform="translate(330.485405, 219.042101)"><g><path d="M 0.875 -7.4375 L 2.609375 -7.4375 L 2.609375 0 L 0.875 0 Z M 0.875 -7.4375 "/></g></g></g></svg>